<svg xmlns="http://www.w3.org/2000/svg" xmlns:xlink="http://www.w3.org/1999/xlink" width="226.456" height="60" viewBox="0 0 226.456 60"><defs><clipPath id="a"><path d="M0,0H60.853V54.239H0Z"/></clipPath></defs><g transform="translate(-9.638 -21.66)"><g transform="translate(9.638 23.44)" clip-path="url(#a)"><path d="M0,0H60.912V54.373H0Z" fill="rgba(255,255,255,0)"/><path d="M-60.032,92.813c-2.949-.53-8.511-1.44-10.877-2.989a8.221,8.221,0,0,1-3.316-6.309c-.041-1.745,1.879-3.077,3.07-4.161s3.206-1.587,4.074-2.343.855-1.034,1.137-2.194-.052-3.537.554-4.769a4.623,4.623,0,0,1,3.079-2.626c1.352-.235,2.624-.767,5.032,1.215s7.751,7.81,9.417,10.675,1.471,4.233.578,6.515S-51.093,91.838-53.217,93s-3.866.34-6.815-.19Z" fill="#fff"/><path d="M-51.738,74.906c.55-3,1.5-8.67,3.043-11.068a7.953,7.953,0,0,1,6.218-3.318c1.711-.024,3,1.95,4.046,3.176s1.521,3.288,2.253,4.182,1,.883,2.138,1.183,3.466-.016,4.668.615a4.673,4.673,0,0,1,2.541,3.169c.216,1.382.724,2.686-1.243,5.122s-7.735,7.828-10.559,9.5-4.163,1.456-6.39.522S-50.876,84.037-52,81.857s-.293-3.949.257-6.952Z" fill="#fff"/><path d="M-38.427,84.193c2.908.728,8.4,2.012,10.659,3.718a8.244,8.244,0,0,1,2.9,6.52c-.072,1.744-2.075,2.944-3.333,3.945s-3.3,1.366-4.218,2.062-.92.974-1.277,2.112-.178,3.532-.862,4.721a4.606,4.606,0,0,1-3.243,2.412c-1.364.143-2.668.588-4.942-1.552s-7.227-8.317-8.7-11.288S-52.639,92.52-51.6,90.3s4.191-5.742,6.386-6.76,3.88-.078,6.787.65Z" fill="#fff"/><path d="M-51.754,87.359c-1.046,1.157-2.337,6.834-4.147,8.753s-5.739,1.523-6.712,2.762-.481,4.319.874,4.674A8.572,8.572,0,0,0-54.483,101c2.019-2.4,4.4-9.558,4.858-11.833s-1.083-2.969-2.129-1.812Z" fill="#fff"/><path d="M-53.781,36.8C-56.216,40.356-65.6,45.7-69.7,47.052s-6.949-.635-8.7-2.12-2.277-5.009-1.827-6.788,4.546-2.82,4.525-3.886-3.607-1.212-4.648-2.505-2.226-3.558-1.6-5.256S-78.7,22.39-76.6,21.563s3.65-.722,7.235-.028,11.677,1.645,14.275,4.189,3.745,7.522,1.31,11.077Z" fill="#fff"/><path d="M-62.257,34.193c-3.463-2.678-8.057-12.108-9.04-16.129s1.4-6.5,3.144-8,5.486-1.618,7.3-1,2.47,4.593,3.587,4.687,1.652-3.278,3.116-4.124,3.961-1.725,5.673-.953a10.866,10.866,0,0,1,4.6,5.584c.643,2.07.368,3.524-.739,6.837s-2.963,10.855-5.9,13.038-8.273,2.738-11.735.06Z" fill="#fff"/><path d="M-57.5,24.588c3.473-2.666,14.135-4.992,18.48-5.076s6.4,2.644,7.589,4.571.536,5.433-.471,6.993-5.241,1.348-5.568,2.367,3.036,2.211,3.606,3.747.96,4.037-.188,5.469-4.436,2.95-6.7,3.121-3.706-.385-6.89-2.1-10.572-4.992-12.214-8.175A9.091,9.091,0,0,1-57.5,24.588Z" fill="#fff"/><path d="M-60.664,31.758c-1,.047,3.539,9.86,3.486,13.394s-4.384,6.046-3.8,7.813,5.652,4.139,7.289,2.791,3.7-6.883,2.535-10.883-8.5-13.162-9.507-13.115Z" fill="#fff"/><path d="M26.234,9.426c3.167-17.677,29.6-5.111,3.7,21.387C-3.367,14.537,17.319-6.166,26.234,9.426Z" fill="#fff"/><path d="M10.376,36.793C-8.169,36.746,1.537,10.284,31.9,29.9,19.215,63.3-4.562,47.566,10.376,36.793Z" fill="#fff"/><path d="M51.737,28.406c18.012,4.055,2.447,27.95-22.516,2.12C49.29.455,68.75,21.052,51.737,28.406Z" fill="#fff"/><path d="M28.7,27.421c-.953-.044,2.105,10.621,1.613,14.307s-4.894,5.908-4.567,7.807,4.816,4.844,6.53,3.586,4.351-6.846,3.755-11.129S29.657,27.465,28.7,27.421Z" fill="#fff"/><path d="M-100.564,170.228h0c-9.283-13.519-8.89-34.116.9-47.013s25.59-13.642,36.069-1.7,12.017,32.449,3.509,46.806l-20.848-20.976Z" fill="rgba(255,255,255,0)"/><path d="M-100.564,170.228h0c-9.283-13.519-8.89-34.116.9-47.013s25.59-13.642,36.069-1.7,12.017,32.449,3.509,46.806" fill="rgba(255,255,255,0)"/><path d="M-100.564,170.228h0c-9.283-13.519-8.89-34.116.9-47.013s25.59-13.642,36.069-1.7,12.017,32.449,3.509,46.806" fill="#fff" stroke="#51c52f" stroke-linejoin="round" stroke-width="6.35"/><path d="M-97.872,169.8c-9.867-11.192-10.381-29.778-1.153-41.72s24.775-12.813,34.9-1.953S-53.054,155.551-62,167.8l-18.745-19.548Z" fill="rgba(255,255,255,0)"/><path d="M-97.872,169.8c-9.867-11.192-10.381-29.778-1.153-41.72s24.775-12.813,34.9-1.953S-53.054,155.551-62,167.8" fill="rgba(255,255,255,0)"/><path d="M-97.872,169.8c-9.867-11.192-10.381-29.778-1.153-41.72s24.775-12.813,34.9-1.953S-53.054,155.551-62,167.8" fill="#fff" stroke="#51c52f" stroke-linejoin="round" stroke-width="6.35"/><path d="M-108.91,167.68h13.416v9.642H-108.91Z" fill="#fff"/><path d="M-64.544,165.888h13.417v9.642H-64.544Z" fill="#fff"/><path d="M288.927,98.2h0c-9.282-13.52-8.888-34.117.9-47.015s25.588-13.642,36.066-1.7,12.016,32.449,3.51,46.807L308.554,75.317Z" fill="rgba(255,255,255,0)"/><path d="M288.927,98.2h0c-9.282-13.52-8.888-34.117.9-47.015s25.588-13.642,36.066-1.7,12.016,32.449,3.51,46.807" fill="rgba(255,255,255,0)"/><path d="M288.927,98.2h0c-9.282-13.52-8.888-34.117.9-47.015s25.588-13.642,36.066-1.7,12.016,32.449,3.51,46.807" fill="#fff" stroke="#51c52f" stroke-linejoin="round" stroke-width="6.35"/><path d="M291.62,97.773C281.753,86.58,281.239,68,290.467,56.053s24.775-12.813,34.9-1.953,11.072,29.421,2.126,41.666L308.748,76.217Z" fill="rgba(255,255,255,0)"/><path d="M291.62,97.773C281.753,86.58,281.239,68,290.467,56.053s24.775-12.813,34.9-1.953,11.072,29.421,2.126,41.666" fill="rgba(255,255,255,0)"/><path d="M291.62,97.773C281.753,86.58,281.239,68,290.467,56.053s24.775-12.813,34.9-1.953,11.072,29.421,2.126,41.666" fill="#fff" stroke="#51c52f" stroke-linejoin="round" stroke-width="6.35"/><path d="M280.584,95.649H294v9.642H280.584Z" fill="#fff"/><path d="M324.949,93.857h13.416V103.5H324.949Z" fill="#fff"/><path d="M319.782,9.852c12.937-6.66,17.968,16.588-11.918,12.915-6.05-29.5,17.521-26.345,11.918-12.915Z" fill="#fff"/><path d="M294.321,13.091c-9.168-11.992,12.66-18.757,15.109,10.5-27.77,8.259-29.445-14.834-15.109-10.5Z" fill="#fff"/><path d="M320.226,35.656C326.553,49.277,303.469,51,307.7,22.168,336.984,20.315,333.393,43.015,320.226,35.656Z" fill="#fff"/><path d="M309.437,20.306c-.444-.637-5.785,6.588-8.4,8.085s-6.226-.25-7.285.9-.726,5.493.933,5.98,6.559-.563,9.018-3.056,6.177-11.268,5.733-11.9Z" fill="#fff"/><path d="M342.933,154.033c12.257,13.125-13.64,26.763-19.338-9.853C356.573,127.27,360.757,156.234,342.933,154.033Z" fill="#fff"/><path d="M330.519,124.942c11.148-14.821,26.521,8.8-7.374,21.365C304,116.14,330.842,106.529,330.519,124.942Z" fill="#fff"/><path d="M312.458,163.082c-14.037,11.993-23.845-14.784,11.791-19.3C336.3,177.866,308.154,181.109,312.458,163.082Z" fill="#fff"/><path d="M327.042,145.231c.606-.737-9.766-4.677-12.422-7.279s-1.8-7.458-3.515-8.334-6.763.954-6.783,3.08,2.875,7.584,6.661,9.673,15.452,3.6,16.058,2.859Z" fill="#fff"/></g><text transform="translate(72.094 45.66)" fill="#fff" font-size="25.4" font-family="LucidaCalligraphy-Italic, Lucida Calligraphy" font-style="italic"><tspan x="0" y="0">Hydroponic</tspan><tspan x="0" y="27.52">Is Key</tspan></text></g></svg>